<svg xmlns:xlink="http://www.w3.org/1999/xlink" xmlns="http://www.w3.org/2000/svg" width="24" height="24" viewBox="0 0 24 24"><path fill="#ECECEC" fill-rule="nonzero" d="M12 0c6.627 0 12 5.373 12 12 0 5.993-4.394 10.96-10.136 11.856v.02a12.225 12.225 0 0 1-1.701.124H12c.634 0 1.257-.05 1.864-.144v-8.82h3.15l.494-3.206h-3.645v-1.752c0-1.332.434-2.513 1.678-2.513h1.997V4.767c-.35-.048-1.093-.152-2.496-.152-2.929 0-4.646 1.55-4.646 5.082v2.133H7.385v3.207h3.01v8.812c.58.087 1.167.147 1.768.15L12 24C5.373 24 0 18.627 0 12S5.373 0 12 0z"></path></svg>