<svg xmlns:xlink="http://www.w3.org/1999/xlink" width="22" height="22" viewBox="0 0 22 22" fill="none" xmlns="http://www.w3.org/2000/svg"><path d="M10.9645 1.00002C5.46348 1.0194 1 5.49451 1 11C1 16.5175 5.48253 21 11 21C16.5175 21 21 16.5175 21 11C21 5.48254 16.5175 1.00002 11 1.00002C10.9952 1 10.9906 1.00002 10.9858 1.00002C10.9787 1.00002 10.9716 0.999974 10.9645 1.00002ZM10.5455 1.95173V6.44746C9.27776 6.4112 8.10179 6.22604 7.05824 5.9503C7.25164 5.41249 7.4731 4.91209 7.71875 4.46593C8.5103 3.02827 9.51613 2.14909 10.5455 1.95173ZM11.4545 1.95883C12.4756 2.16678 13.4773 3.0414 14.267 4.46593C14.5152 4.91365 14.739 5.4174 14.9347 5.95741C13.8932 6.23194 12.7189 6.41129 11.4545 6.44746V1.95883ZM13.8551 2.37076C15.3528 2.86497 16.68 3.73272 17.7188 4.87076C17.1658 5.16989 16.5277 5.45411 15.8082 5.69462C15.593 5.09463 15.3438 4.533 15.0625 4.02559C14.7095 3.38888 14.3043 2.83306 13.8551 2.37076ZM8.11648 2.38496C7.67361 2.84522 7.27115 3.39379 6.9233 4.02559C6.64507 4.53091 6.39749 5.09032 6.18466 5.68752C5.46851 5.44762 4.83209 5.16874 4.28125 4.87076C5.31306 3.74036 6.63115 2.8809 8.11648 2.38496ZM3.69176 5.59519C4.32947 5.95317 5.07378 6.28356 5.90767 6.5611C5.56609 7.774 5.36142 9.11896 5.32528 10.5455H1.9233C2.01412 8.69352 2.65711 6.99241 3.69176 5.59519ZM18.3082 5.59519C19.3429 6.99241 19.9859 8.69352 20.0767 10.5455H16.6747C16.6382 9.12123 16.4289 7.77928 16.0852 6.5682C16.9226 6.2901 17.6684 5.95439 18.3082 5.59519ZM6.78125 6.82388C7.91196 7.12449 9.1764 7.32045 10.5455 7.35656V10.5455H6.23438C6.27082 9.20806 6.46688 7.9474 6.78125 6.82388ZM15.2116 6.82388C15.5292 7.94752 15.7287 9.20837 15.7656 10.5455H11.4545V7.35656C12.821 7.32052 14.0826 7.12351 15.2116 6.82388ZM1.9233 11.4546H5.32528C5.36163 12.8808 5.5645 14.2279 5.90767 15.4389C5.06993 15.7165 4.32435 16.0452 3.68466 16.4049C2.65323 15.009 2.01396 13.3032 1.9233 11.4546ZM6.23438 11.4546H10.5455V14.6506C9.17649 14.6864 7.91191 14.8772 6.78125 15.1762C6.46477 14.0525 6.27059 12.7939 6.23438 11.4546ZM11.4545 11.4546H15.7656C15.7294 12.7939 15.5352 14.0525 15.2188 15.1762C14.0881 14.8772 12.8235 14.6864 11.4545 14.6506V11.4546ZM16.6747 11.4546H20.0767C19.986 13.3032 19.3468 15.009 18.3153 16.4049C17.6756 16.0452 16.9301 15.7165 16.0923 15.4389C16.4355 14.2279 16.6384 12.8808 16.6747 11.4546ZM10.4531 15.5597C10.4837 15.5586 10.5148 15.5606 10.5455 15.5597V20.0483C9.52005 19.8445 8.51667 18.9584 7.72585 17.527C7.47912 17.0804 7.25264 16.5874 7.05824 16.0497C8.0765 15.7822 9.22068 15.6017 10.4531 15.5597ZM11.4545 15.5597C12.7222 15.5956 13.8982 15.7755 14.9418 16.0497C14.7474 16.5874 14.5209 17.0804 14.2741 17.527C13.4833 18.9584 12.48 19.8445 11.4545 20.0483V15.5597ZM6.18466 16.3054C6.39909 16.9051 6.64988 17.4596 6.9304 17.9674C7.28213 18.604 7.68973 19.1659 8.13778 19.6293C6.64356 19.1345 5.31805 18.2652 4.28125 17.1293C4.8326 16.8313 5.4677 16.5444 6.18466 16.3054ZM15.8153 16.3054C16.5323 16.5444 17.1674 16.8313 17.7188 17.1293C16.6819 18.2652 15.3564 19.1345 13.8622 19.6293C14.3103 19.1659 14.7179 18.604 15.0696 17.9674C15.3501 17.4596 15.6009 16.9051 15.8153 16.3054Z" fill="#DBDBDB" stroke="#33393D" stroke-width="0.1px"></path></svg>