<svg xmlns:xlink="http://www.w3.org/1999/xlink" width="21" height="20" viewBox="0 0 21 20" fill="none" xmlns="http://www.w3.org/2000/svg"><path d="M11.3534 4.47292C11.2346 4.58724 11.1797 4.75284 11.2068 4.91553L11.2403 5.11671L11.0679 5.02511C10.9212 4.94719 10.7454 4.94719 10.5988 5.02511L10.4214 5.11932L10.4602 4.88004C10.4865 4.71799 10.4316 4.55337 10.3132 4.43958L10.2157 4.34578L10.3552 4.33028C10.5259 4.31131 10.675 4.20603 10.7499 4.05147L10.8333 3.8794L10.9168 4.05147C10.9896 4.20167 11.1326 4.30562 11.2979 4.32858L11.4776 4.35354L11.3534 4.47292ZM13.6037 10.6428C13.6839 10.4985 13.6877 10.324 13.6139 10.1764L13.3022 9.5531L14.0038 9.69066C14.1648 9.72223 14.3311 9.67279 14.4487 9.55836L14.9552 9.06549L15.0368 9.75842C15.0561 9.9227 15.1554 10.0668 15.302 10.1433L15.9392 10.4757L15.288 10.7805C15.1405 10.8495 15.0359 10.9861 15.0076 11.1464L14.8832 11.8514L14.4011 11.3279C14.2902 11.2076 14.1275 11.1491 13.9653 11.1713L13.2561 11.2687L13.6037 10.6428ZM0.5 9.93333C0.5 5.71845 3.25628 2.13082 7.05442 0.849382C5.91577 2.52343 5.26667 4.5458 5.26667 6.7C5.26667 12.5382 9.98313 17.2593 15.8196 17.2667C15.9408 17.2731 16.0604 17.2758 16.1786 17.2753C14.5079 18.6661 12.3826 19.5 10.0667 19.5C4.77614 19.5 0.5 15.2239 0.5 9.93333Z" stroke="#DBDBDB" stroke-linecap="round" stroke-linejoin="round" fill="none"></path></svg>