<svg xmlns:xlink="http://www.w3.org/1999/xlink" width="23" height="18" viewBox="0 0 23 18" fill="none" xmlns="http://www.w3.org/2000/svg"><g clip-path="url(#clip0)" fill="none"><path d="M10.5986 0H1.03343C0.505154 0 0.0769043 0.447715 0.0769043 1C0.0769043 1.55228 0.505154 2 1.03343 2H10.5986C11.1269 2 11.5552 1.55228 11.5552 1C11.5552 0.447715 11.1269 0 10.5986 0Z" fill="#ECECEC"></path><path d="M21.1204 8H1.03343C0.505154 8 0.0769043 8.44772 0.0769043 9C0.0769043 9.55228 0.505154 10 1.03343 10H21.1204C21.6487 10 22.0769 9.55228 22.0769 9C22.0769 8.44772 21.6487 8 21.1204 8Z" fill="#ECECEC"></path><path d="M21.1204 16H11.5552C11.0269 16 10.5986 16.4477 10.5986 17C10.5986 17.5523 11.0269 18 11.5552 18H21.1204C21.6486 18 22.0769 17.5523 22.0769 17C22.0769 16.4477 21.6486 16 21.1204 16Z" fill="#ECECEC"></path></g><defs><clipPath id="clip0"><rect width="22" height="18" fill="white" transform="translate(0.0769043)"></rect></clipPath></defs></svg>