<svg xmlns:xlink="http://www.w3.org/1999/xlink" width="25" height="22" viewBox="0 0 25 22" fill="none" xmlns="http://www.w3.org/2000/svg"><path d="M21.6451 7.60672H15.213V3.31602C15.212 2.70207 14.9555 2.11355 14.4997 1.67942C14.0438 1.24529 13.4259 1.00097 12.7813 1H3.43181C2.78718 1.00097 2.16924 1.24529 1.71341 1.67942C1.25758 2.11355 1.00105 2.70207 1.00003 3.31602V8.88401C0.997473 9.34498 1.14268 9.79572 1.41625 10.176C2.30649 11.8277 6.54572 14.3052 6.58812 14.3419C6.64833 14.3774 6.71767 14.3965 6.78852 14.397C6.87904 14.3961 6.96636 14.3649 7.03516 14.3089C7.09636 14.2591 7.13967 14.1924 7.15902 14.118C7.17837 14.0436 7.17279 13.9653 7.14307 13.8941C6.80441 13.0179 6.54652 12.1152 6.3723 11.1964H9.86389V15.4907C9.86491 16.1043 10.1216 16.6925 10.5775 17.126C11.0334 17.5596 11.6514 17.8031 12.2957 17.8031H18.7046C18.5304 18.7219 18.2725 19.6246 17.9338 20.5008C17.905 20.5716 17.8999 20.6491 17.9192 20.7227C17.9386 20.7963 17.9814 20.8624 18.0418 20.9119C18.1106 20.968 18.1979 20.9991 18.2884 21C18.3592 20.9995 18.4286 20.9805 18.4888 20.9449C18.5312 20.9193 22.7704 18.4307 23.6607 16.779C23.9342 16.3988 24.0794 15.948 24.0769 15.4871V9.92274C24.0759 9.30879 23.8193 8.72026 23.3635 8.28614C22.9077 7.85201 22.2897 7.60769 21.6451 7.60672ZM8.48806 10.4623H5.91369C5.85803 10.4623 5.80302 10.4738 5.75246 10.4959C5.7019 10.5181 5.65698 10.5505 5.6208 10.5907C5.58422 10.6312 5.55733 10.6787 5.54202 10.7301C5.52671 10.7814 5.52335 10.8353 5.53216 10.8881C5.6648 11.6485 5.84366 12.401 6.06785 13.1417C4.73441 12.2828 2.63407 10.8073 2.10994 9.85667C2.09813 9.83105 2.08395 9.80648 2.06755 9.78326C1.87341 9.51994 1.76973 9.20577 1.7708 8.88401V3.31602C1.77182 2.89676 1.94715 2.49495 2.25843 2.19849C2.56971 1.90203 2.9916 1.73505 3.43181 1.73408H12.7813C13.2215 1.73505 13.6434 1.90203 13.9546 2.19849C14.2659 2.49495 14.4412 2.89676 14.4423 3.31602V7.60672H12.2957C11.9327 7.60686 11.5743 7.68441 11.2469 7.83366C10.9194 7.98292 10.6312 8.20009 10.4034 8.46926C9.85333 8.47035 9.31115 8.3444 8.82335 8.10222C9.54272 7.32653 9.96635 6.34243 10.0257 5.30905H10.5113C10.6135 5.30905 10.7116 5.27038 10.7838 5.20154C10.8561 5.13271 10.8967 5.03935 10.8967 4.94201C10.8967 4.84466 10.8561 4.7513 10.7838 4.68247C10.7116 4.61364 10.6135 4.57497 10.5113 4.57497H8.50733V3.41512C8.50733 3.31778 8.46673 3.22442 8.39446 3.15559C8.32218 3.08675 8.22416 3.04808 8.12195 3.04808C8.01974 3.04808 7.92171 3.08675 7.84944 3.15559C7.77717 3.22442 7.73656 3.31778 7.73656 3.41512V4.56396H5.72871C5.6265 4.56396 5.52847 4.60263 5.4562 4.67146C5.38392 4.74029 5.34332 4.83365 5.34332 4.931C5.34332 5.02834 5.38392 5.1217 5.4562 5.19053C5.52847 5.25937 5.6265 5.29804 5.72871 5.29804H9.25113C9.19496 6.14811 8.84386 6.95633 8.25298 7.59571L8.19132 7.65076C7.7626 7.25192 7.43335 6.7665 7.22785 6.23032C7.19106 6.1393 7.11781 6.06593 7.02421 6.02635C6.93062 5.98677 6.82435 5.98422 6.72878 6.01927C6.63321 6.05431 6.55618 6.12408 6.51462 6.21322C6.47306 6.30236 6.47039 6.40357 6.50718 6.49459C6.737 7.08898 7.09396 7.63142 7.55543 8.08754C6.99351 8.35794 6.36958 8.49041 5.74027 8.47293C5.63806 8.47293 5.54003 8.5116 5.46776 8.58043C5.39549 8.64927 5.35488 8.74263 5.35488 8.83997C5.35488 8.93732 5.39549 9.03067 5.46776 9.09951C5.54003 9.16834 5.63806 9.20701 5.74027 9.20701C6.60459 9.23277 7.45793 9.01715 8.19517 8.58671C8.73722 8.9154 9.35468 9.11436 9.99492 9.16664C9.90867 9.40268 9.86438 9.65078 9.86389 9.90071V10.4403L8.48806 10.4623ZM23.3061 15.4907C23.3072 15.8125 23.2035 16.1267 23.0094 16.39C22.9928 16.4112 22.9798 16.4347 22.9708 16.4597C22.4467 17.4103 20.3425 18.8895 19.0091 19.7631C19.2333 19.0224 19.4121 18.2699 19.5448 17.5095C19.5536 17.4567 19.5502 17.4028 19.5349 17.3515C19.5196 17.3001 19.4927 17.2526 19.4561 17.2121C19.4199 17.1719 19.375 17.1395 19.3245 17.1173C19.2739 17.0952 19.2189 17.0837 19.1632 17.0837H12.2957C11.8558 17.0837 11.4339 16.9175 11.1225 16.6216C10.8111 16.3258 10.6357 15.9243 10.6347 15.5054V9.92274C10.6357 9.50348 10.811 9.10167 11.1223 8.80521C11.4336 8.50875 11.8555 8.34177 12.2957 8.3408H21.6451C22.0853 8.34177 22.5072 8.50875 22.8185 8.80521C23.1298 9.10167 23.3051 9.50348 23.3061 9.92274V15.4907ZM17.3442 9.84566C17.3295 9.8149 17.31 9.78643 17.2864 9.76124C17.2864 9.76124 17.2864 9.73555 17.2594 9.72454C17.2459 9.71514 17.2317 9.70656 17.217 9.69884C17.1924 9.67853 17.1652 9.66126 17.1361 9.64746C17.1156 9.64571 17.095 9.64571 17.0744 9.64746C17.0475 9.64571 17.0205 9.64571 16.9935 9.64746C16.9595 9.65001 16.9259 9.65616 16.8933 9.66581H16.8509C16.8149 9.68098 16.7812 9.70073 16.7507 9.72454L16.7237 9.74289L16.6929 9.78693C16.6727 9.81117 16.6547 9.83695 16.639 9.86401L14.3266 15.3696C14.3079 15.4144 14.2986 15.4623 14.2993 15.5106C14.2999 15.5588 14.3106 15.6065 14.3307 15.6508C14.3507 15.6951 14.3797 15.7352 14.4161 15.7689C14.4524 15.8025 14.4954 15.829 14.5425 15.8468C14.5877 15.8644 14.6362 15.8731 14.6851 15.8725C14.7622 15.8725 14.8377 15.8505 14.9016 15.8093C14.9655 15.7681 15.0149 15.7095 15.0435 15.6412L15.714 14.0373H18.2768L18.9513 15.6412C18.9798 15.7095 19.0293 15.7681 19.0932 15.8093C19.1571 15.8505 19.2325 15.8725 19.3097 15.8725C19.3585 15.8726 19.4069 15.8638 19.4523 15.8468C19.4994 15.829 19.5423 15.8025 19.5787 15.7689C19.615 15.7352 19.644 15.6951 19.6641 15.6508C19.6841 15.6065 19.6948 15.5588 19.6955 15.5106C19.6962 15.4623 19.6869 15.4144 19.6681 15.3696L17.3442 9.84566ZM16.0069 13.2848L16.9819 10.9688L17.9531 13.2848H16.0069Z" fill="#DBDBDB" stroke="#DBDBDB" stroke-width="0.25px"></path></svg>