<svg xmlns:xlink="http://www.w3.org/1999/xlink" width="20" height="20" viewBox="0 0 20 20" fill="none" xmlns="http://www.w3.org/2000/svg"><path d="M7.91667 1.2484C9.23579 1.24719 10.5256 1.63726 11.623 2.36924C12.7204 3.10123 13.576 4.14225 14.0817 5.36061C14.5873 6.57897 14.7202 7.91992 14.4636 9.21384C14.207 10.5078 13.5724 11.6965 12.6401 12.6297C11.7078 13.5629 10.5196 14.1986 9.22591 14.4564C7.93223 14.7141 6.59115 14.5824 5.37233 14.0779C4.15351 13.5734 3.11171 12.7187 2.37872 11.622C1.64573 10.5253 1.25449 9.23578 1.25449 7.91667C1.26249 6.15165 1.96677 4.46111 3.21427 3.21247C4.46177 1.96383 6.15166 1.25801 7.91667 1.2484ZM7.91667 0C6.3509 0 4.82029 0.464304 3.5184 1.3342C2.21652 2.20409 1.20182 3.44051 0.602624 4.88709C0.00343025 6.33367 -0.153346 7.92545 0.15212 9.46113C0.457586 10.9968 1.21158 12.4074 2.31874 13.5146C3.42591 14.6218 4.83652 15.3757 6.3722 15.6812C7.90789 15.9867 9.49966 15.8299 10.9462 15.2307C12.3928 14.6315 13.6292 13.6168 14.4991 12.3149C15.369 11.013 15.8333 9.48243 15.8333 7.91667C15.8333 5.81703 14.9993 3.8034 13.5146 2.31874C12.0299 0.834075 10.0163 0 7.91667 0Z" fill="#DBDBDB"></path><path d="M19.8133 18.9098L15.0789 14.1667L14.1667 15.068L18.9011 19.8111C18.9606 19.8707 19.0313 19.918 19.1092 19.9504C19.187 19.9829 19.2706 19.9997 19.355 20C19.4394 20.0003 19.523 19.984 19.6011 19.9522C19.6792 19.9203 19.7502 19.8734 19.8101 19.8143C19.87 19.7551 19.9176 19.6847 19.9502 19.6073C19.9828 19.5298 19.9997 19.4467 20 19.3627C20.0003 19.2787 19.984 19.1955 19.9519 19.1177C19.9199 19.04 19.8728 18.9694 19.8133 18.9098Z" fill="#DBDBDB"></path></svg>