<svg xmlns:xlink="http://www.w3.org/1999/xlink" xmlns="http://www.w3.org/2000/svg" width="25" height="20" viewBox="0 0 25 20"><path fill="#636366" fill-rule="nonzero" d="M25 2.365a9.96 9.96 0 0 1-2.87.801A5.071 5.071 0 0 0 24.327.368a9.896 9.896 0 0 1-3.17 1.224A4.937 4.937 0 0 0 17.516 0c-2.756 0-4.99 2.26-4.99 5.048 0 .395.045.779.13 1.152C8.509 5.988 4.83 3.975 2.37.921a5.065 5.065 0 0 0-.675 2.542c0 1.753.879 3.296 2.22 4.205a5.003 5.003 0 0 1-2.264-.63v.059c0 2.449 1.721 4.488 4.002 4.952a4.87 4.87 0 0 1-1.311.181c-.322 0-.637-.037-.94-.093.634 2.002 2.477 3.464 4.66 3.508a9.955 9.955 0 0 1-7.388 2.09A14.052 14.052 0 0 0 8.325 20c9.18 0 14.2-7.694 14.2-14.368 0-.219-.006-.437-.016-.652A9.931 9.931 0 0 0 25 2.365"></path></svg>