<svg xmlns:xlink="http://www.w3.org/1999/xlink" xmlns="http://www.w3.org/2000/svg" width="27" height="20" viewBox="0 0 27 20"><path fill="#ECECEC" fill-rule="nonzero" d="M13.333 0c4.134 0 7.734.4 10 .733 1.4.2 2.534 1.267 2.8 2.667.267 1.533.6 3.8.6 6.6-.066 2.8-.333 5.067-.6 6.6a3.329 3.329 0 0 1-2.8 2.667c-2.2.333-5.866.733-10 .733-4.066 0-7.733-.4-10-.733a3.329 3.329 0 0 1-2.8-2.667C.267 15.067 0 12.8 0 10s.267-5.067.533-6.6a3.329 3.329 0 0 1 2.8-2.667C5.533.4 9.2 0 13.333 0zm-2.666 5.333v9.334l8-4.667-8-4.667z"></path></svg>